<svg width="25" height="25" viewBox="0 0 25 25" fill="none" xmlns="http://www.w3.org/2000/svg">
<path d="M12.6749 0.00116137C5.64513 -0.0937816 -0.0937861 5.64486 0.00116143 12.6742C0.0949071 19.4158 5.58444 24.9051 12.3263 24.9988C19.3572 25.095 25.095 19.3563 24.9988 12.3269C24.9063 5.58417 19.4167 0.0949025 12.6749 0.00116137ZM11.6659 11.5668L14.7637 8.02144C14.9315 7.8294 15.1688 7.71189 15.4232 7.69476C15.6777 7.67763 15.9286 7.76229 16.1206 7.9301C16.3127 8.09792 16.4302 8.33515 16.4473 8.58961C16.4644 8.84407 16.3798 9.09491 16.212 9.28695L13.1141 12.8323C13.031 12.9274 12.93 13.0052 12.8169 13.0612C12.7037 13.1173 12.5806 13.1505 12.4546 13.159C12.3286 13.1674 12.2022 13.151 12.0825 13.1107C11.9629 13.0703 11.8523 13.0067 11.7572 12.9236C11.6621 12.8405 11.5843 12.7395 11.5283 12.6264C11.4722 12.5132 11.439 12.3901 11.4305 12.2641C11.4221 12.1381 11.4385 12.0117 11.4789 11.892C11.5192 11.7724 11.5828 11.6619 11.6659 11.5668ZM9.33066 17.026C9.15036 17.2062 8.9059 17.3074 8.651 17.3074C8.39611 17.3074 8.15164 17.2062 7.97135 17.026L5.08987 14.1417C5.00062 14.0523 4.92983 13.9463 4.88156 13.8296C4.83328 13.7129 4.80847 13.5879 4.80852 13.4616C4.80858 13.3353 4.83351 13.2103 4.88188 13.0937C4.93026 12.977 5.00114 12.8711 5.09047 12.7818C5.1798 12.6926 5.28584 12.6218 5.40253 12.5735C5.51922 12.5252 5.64427 12.5004 5.77055 12.5005C5.89683 12.5005 6.02186 12.5255 6.13851 12.5738C6.25515 12.6222 6.36113 12.6931 6.45038 12.7824L9.33487 15.6668C9.51449 15.8476 9.61495 16.0924 9.61416 16.3472C9.61337 16.6021 9.5114 16.8463 9.33066 17.026ZM19.9552 9.28695L13.2319 16.9785C13.1453 17.0778 13.0392 17.1582 12.9202 17.2147C12.8012 17.2712 12.6719 17.3027 12.5402 17.3072H12.5078C12.3815 17.3072 12.2563 17.2824 12.1396 17.234C12.0229 17.1856 11.9169 17.1148 11.8275 17.0254L8.94666 14.1411C8.76641 13.9606 8.6652 13.716 8.66532 13.461C8.66543 13.206 8.76685 12.9615 8.94726 12.7812C9.12768 12.601 9.37231 12.4998 9.62735 12.4999C9.88238 12.5 10.1269 12.6014 10.3072 12.7818L12.098 14.5743C12.1445 14.6209 12.2001 14.6574 12.2614 14.6816C12.3226 14.7057 12.3882 14.7171 12.454 14.7149C12.5198 14.7127 12.5845 14.697 12.6439 14.6688C12.7034 14.6406 12.7565 14.6004 12.7999 14.5509L18.5087 8.02144C18.6765 7.8294 18.9138 7.71189 19.1683 7.69476C19.4227 7.67763 19.6736 7.76229 19.8656 7.9301C20.0577 8.09792 20.1752 8.33515 20.1923 8.58961C20.2095 8.84407 20.1248 9.09491 19.957 9.28695H19.9552Z" fill="#00BD13"/>
</svg>
